<svg xmlns="http://www.w3.org/2000/svg" width="71" height="70"><defs><clipPath id="a"><path fill="#fff" d="M0 70V0h71v70zm3.025-35.208c0 17.558 14.341 31.792 32.031 31.792 17.69 0 32.032-14.234 32.032-31.792S52.747 3 35.056 3c-17.69 0-32.03 14.234-32.03 31.792z"/></clipPath></defs><path fill="#ffd400" d="M35.056 3c17.69 0 32.032 14.234 32.032 31.792S52.747 66.584 35.056 66.584c-17.69 0-32.03-14.234-32.03-31.792S17.365 3 35.055 3z"/><path fill="none" stroke="#a9acae" stroke-linecap="round" stroke-linejoin="round" stroke-miterlimit="20" stroke-width="6" d="M35.056 3c17.69 0 32.032 14.234 32.032 31.792S52.747 66.584 35.056 66.584c-17.69 0-32.03-14.234-32.03-31.792S17.365 3 35.055 3z" clip-path="url(&quot;#a&quot;)"/><path fill="#a9acae" d="M51.434 46.2a1.561 1.561 0 01-1.401-.885l-3.296-6.738-3.295 6.738c-.274.56-.827.885-1.401.885a1.54 1.54 0 01-.7-.17 1.616 1.616 0 01-.699-2.146l4.346-8.885-4.346-8.885c-.387-.79-.073-1.752.7-2.147a1.55 1.55 0 012.1.716l3.295 6.738 3.296-6.738a1.549 1.549 0 012.1-.716c.773.395 1.086 1.356.7 2.147l-4.346 8.885 4.346 8.885c.386.79.073 1.751-.7 2.147a1.544 1.544 0 01-.699.169zM37.347 51c-.408 0-.808-.163-1.107-.469L27.307 41.4h-8.742C17.7 41.4 17 40.683 17 39.8v-9.6c0-.884.7-1.6 1.565-1.6h8.742l8.933-9.132a1.54 1.54 0 011.705-.347 1.6 1.6 0 01.967 1.478V49.4a1.6 1.6 0 01-.967 1.478 1.532 1.532 0 01-.598.122zM20.13 38.2h7.826c.415 0 .813.168 1.106.468l6.72 6.869V24.46l-6.72 6.869c-.293.3-.691.469-1.106.469H20.13z"/></svg>