<svg xmlns="http://www.w3.org/2000/svg" width="71" height="70"><defs><clipPath id="a"><path fill="#fff" d="M0 70V0h71v70zm3.048-35.208c0 17.558 14.33 31.792 32.007 31.792S67.062 52.35 67.062 34.792 52.732 3 35.055 3 3.048 17.234 3.048 34.792z"/></clipPath></defs><path fill="#ffd400" d="M35.055 3c17.677 0 32.007 14.234 32.007 31.792s-14.33 31.792-32.007 31.792S3.048 52.35 3.048 34.792 17.378 3 35.055 3z"/><path fill="none" stroke="#ff9015" stroke-linecap="round" stroke-linejoin="round" stroke-miterlimit="20" stroke-width="6" d="M35.055 3c17.677 0 32.007 14.234 32.007 31.792s-14.33 31.792-32.007 31.792S3.048 52.35 3.048 34.792 17.378 3 35.055 3z" clip-path="url(&quot;#a&quot;)"/><path fill="#ff9015" d="M44.758 50c-.461 0-.917-.206-1.221-.6a1.552 1.552 0 01.275-2.172c3.878-3.014 6.102-7.552 6.102-12.453a15.78 15.78 0 00-6.786-12.955 1.552 1.552 0 01-.39-2.154 1.54 1.54 0 012.146-.392 18.88 18.88 0 018.115 15.501c0 5.866-2.66 11.297-7.298 14.9a1.533 1.533 0 01-.943.325zm-1.002-4.654c-.38 0-.761-.14-1.06-.423a1.552 1.552 0 01-.061-2.189 11.585 11.585 0 003.165-7.97c0-3.221-1.29-6.218-3.631-8.438a1.552 1.552 0 01-.062-2.189 1.54 1.54 0 012.181-.061 14.793 14.793 0 014.597 10.688c0 3.768-1.423 7.354-4.008 10.097a1.535 1.535 0 01-1.121.485zm-1.706-4.625a1.55 1.55 0 01-1.339-2.315 7.5 7.5 0 00.974-3.7c0-1.44-.408-2.838-1.18-4.042a1.552 1.552 0 01.463-2.14 1.54 1.54 0 012.132.464 10.572 10.572 0 011.67 5.718c0 1.836-.476 3.646-1.378 5.234a1.54 1.54 0 01-1.342.781zm-4.993 9.252c-.402 0-.796-.157-1.091-.454l-8.805-8.836h-8.618A1.546 1.546 0 0117 39.135v-9.29c0-.855.69-1.548 1.543-1.548h8.618l8.805-8.836a1.537 1.537 0 011.681-.335c.577.24.953.804.953 1.43v27.869a1.548 1.548 0 01-1.543 1.548zM20.085 37.587H27.8c.409 0 .801.163 1.09.453l6.624 6.647V24.294L28.89 30.94a1.54 1.54 0 01-1.091.454h-7.715z"/></svg>